<svg xmlns="http://www.w3.org/2000/svg" viewBox="0 0 1280 720" width="1280" height="720">

            <rect width="1280" height="720" fill="#080912"/>
            
            <text x="60" y="60" fill="#ffffff" font-family="sans-serif" font-size="26" font-weight="bold">Explore Community Feed</text>
            <text x="60" y="85" fill="#94a3b8" font-family="sans-serif" font-size="14">Curated Web3 creations from Ortho Society creators</text>

            <!-- Bento Grid Layout -->
            <!-- Large Card (Cyber Heroine) -->
            <rect x="60" y="120" width="460" height="480" rx="16" fill="#111827" stroke="#38bdf8" stroke-width="1.5"/>
            <rect x="80" y="140" width="420" height="340" rx="10" fill="#1e293b"/>
            <circle cx="290" cy="300" r="90" fill="#0c4a6e"/>
            <text x="290" y="310" fill="#38bdf8" font-size="40" text-anchor="middle">HEROINE</text>
            <text x="80" y="520" fill="#ffffff" font-family="sans-serif" font-size="18" font-weight="bold">Cyber Heroine Lookbook</text>
            <text x="80" y="550" fill="#94a3b8" font-family="monospace" font-size="13">By Agent Kenzee • 4,890 Likes</text>

            <!-- Card 2: Street Boombox -->
            <rect x="545" y="120" width="330" height="230" rx="16" fill="#111827" stroke="#a855f7" stroke-width="1.5"/>
            <rect x="565" y="140" width="290" height="130" rx="8" fill="#3b0764"/>
            <text x="710" y="210" fill="#c084fc" font-size="20" text-anchor="middle">BOOMBOX</text>
            <text x="565" y="300" fill="#ffffff" font-family="sans-serif" font-size="16" font-weight="bold">Street Boombox AI</text>
            <text x="565" y="325" fill="#94a3b8" font-family="monospace" font-size="12">1,210 Likes</text>

            <!-- Card 3: Aqua Mage -->
            <rect x="545" y="370" width="330" height="230" rx="16" fill="#111827" stroke="#06b6d4" stroke-width="1.5"/>
            <rect x="565" y="390" width="290" height="130" rx="8" fill="#164e63"/>
            <text x="710" y="460" fill="#67e8f9" font-size="20" text-anchor="middle">AQUA MAGE</text>
            <text x="565" y="550" fill="#ffffff" font-family="sans-serif" font-size="16" font-weight="bold">Aqua Mage Atelier</text>
            <text x="565" y="575" fill="#94a3b8" font-family="monospace" font-size="12">2,440 Likes</text>

            <!-- Card 4: Star Oracle -->
            <rect x="900" y="120" width="320" height="480" rx="16" fill="#111827" stroke="#ec4899" stroke-width="1.5"/>
            <rect x="920" y="140" width="280" height="340" rx="10" fill="#4c0519"/>
            <circle cx="1060" cy="300" r="80" fill="#831843"/>
            <text x="1060" y="310" fill="#f472b6" font-size="30" text-anchor="middle">ORACLE</text>
            <text x="920" y="520" fill="#ffffff" font-family="sans-serif" font-size="18" font-weight="bold">Star Oracle AI</text>
            <text x="920" y="550" fill="#94a3b8" font-family="monospace" font-size="13">3,900 Likes</text>

            <!-- Floating Dock Bar -->
            <rect x="460" y="635" width="360" height="50" rx="25" fill="#000000" stroke="#334155"/>
            <text x="640" y="666" fill="#94a3b8" font-family="monospace" font-size="13" text-anchor="middle">🧭 FEED • 🎨 CREATE • 👤 TWIN • ⚙ SETTINGS</text>
        
</svg>